/* XPM */
static char * wea1_xpm[] = {
"106 13 614 2",
"  	c None",
". 	c #2A3D3B",
"+ 	c #253836",
"@ 	c #2F4240",
"# 	c #3D504E",
"$ 	c #3A4D4B",
"% 	c #162927",
"& 	c #1F3230",
"* 	c #4D605E",
"= 	c #273A38",
"- 	c #344745",
"; 	c #6D807E",
"> 	c #717F7F",
", 	c #5D6B6B",
"' 	c #162424",
") 	c #061414",
"! 	c #535F5F",
"~ 	c #2F3B3B",
"{ 	c #000708",
"] 	c #1A2425",
"^ 	c #31393B",
"/ 	c #3A4244",
"( 	c #0F1417",
"_ 	c #13181B",
": 	c #282C2F",
"< 	c #1F2326",
"[ 	c #4A4E51",
"} 	c #445050",
"| 	c #384444",
"1 	c #2A3636",
"2 	c #1B2727",
"3 	c #424E4E",
"4 	c #414D4D",
"5 	c #3C4848",
"6 	c #273333",
"7 	c #394545",
"8 	c #232F2F",
"9 	c #404C4C",
"0 	c #121E1E",
"a 	c #354141",
"b 	c #3B4B4A",
"c 	c #334342",
"d 	c #40504F",
"e 	c #283837",
"f 	c #061615",
"g 	c #1C2C2B",
"h 	c #364645",
"i 	c #2D3D3C",
"j 	c #223231",
"k 	c #182827",
"l 	c #192928",
"m 	c #243433",
"n 	c #2E3E3D",
"o 	c #30403F",
"p 	c #465957",
"q 	c #506361",
"r 	c #657876",
"s 	c #2D403E",
"t 	c #324543",
"u 	c #152826",
"v 	c #394C4A",
"w 	c #1A2D2B",
"x 	c #203331",
"y 	c #142725",
"z 	c #2C3F3D",
"A 	c #405351",
"B 	c #394948",
"C 	c #263635",
"D 	c #2B3B3A",
"E 	c #293938",
"F 	c #10201F",
"G 	c #515F5F",
"H 	c #354343",
"I 	c #1D2B2B",
"J 	c #485656",
"K 	c #2B3939",
"L 	c #000808",
"M 	c #223030",
"N 	c #3B4E4C",
"O 	c #172A28",
"P 	c #364947",
"Q 	c #213432",
"R 	c #283B39",
"S 	c #3F5250",
"T 	c #243735",
"U 	c #5A6D6B",
"V 	c #5F7270",
"W 	c #293C3A",
"X 	c #1C2F2D",
"Y 	c #4A5D5B",
"Z 	c #5C6F6D",
"` 	c #415452",
" .	c #0A1616",
"..	c #1D2929",
"+.	c #4C5657",
"@.	c #404A4B",
"#.	c #151D1F",
"$.	c #30383A",
"%.	c #050A0D",
"&.	c #353A3D",
"*.	c #252A2D",
"=.	c #33373A",
"-.	c #373B3E",
";.	c #0F1014",
">.	c #25262A",
",.	c #293535",
"'.	c #515D5D",
").	c #303C3C",
"!.	c #374343",
"~.	c #1E2A2A",
"{.	c #2B3737",
"].	c #333F3F",
"^.	c #1F2B2B",
"/.	c #364242",
"(.	c #061212",
"_.	c #1C2828",
":.	c #192727",
"<.	c #263434",
"[.	c #566464",
"}.	c #3E4C4C",
"|.	c #435151",
"1.	c #0B1919",
"2.	c #142222",
"3.	c #0C1A1A",
"4.	c #283636",
"5.	c #172525",
"6.	c #111F1F",
"7.	c #1C2A2A",
"8.	c #253333",
"9.	c #2D3B3B",
"0.	c #3A4848",
"a.	c #586B69",
"b.	c #536664",
"c.	c #6B7E7C",
"d.	c #556866",
"e.	c #112422",
"f.	c #475A58",
"g.	c #2E413F",
"h.	c #3E514F",
"i.	c #223533",
"j.	c #233634",
"k.	c #314140",
"l.	c #1E2C2C",
"m.	c #000909",
"n.	c #0F1D1D",
"o.	c #3E4A4A",
"p.	c #4C5858",
"q.	c #2D3939",
"r.	c #172323",
"s.	c #192C2A",
"t.	c #162625",
"u.	c #344443",
"v.	c #536362",
"w.	c #435352",
"x.	c #213130",
"y.	c #0E1E1D",
"z.	c #1D2D2C",
"A.	c #3D4D4C",
"B.	c #485454",
"C.	c #3E4849",
"D.	c #4F595A",
"E.	c #434D4E",
"F.	c #575F61",
"G.	c #3C4446",
"H.	c #3B4043",
"I.	c #2B3033",
"J.	c #404548",
"K.	c #2E3235",
"L.	c #000104",
"M.	c #1F2024",
"N.	c #36373B",
"O.	c #535458",
"P.	c #101C1C",
"Q.	c #4B5757",
"R.	c #283434",
"S.	c #3D4949",
"T.	c #3B4747",
"U.	c #0D1919",
"V.	c #0D1B1B",
"W.	c #202E2E",
"X.	c #2A3838",
"Y.	c #2C3A3A",
"Z.	c #334141",
"`.	c #3F4D4D",
" +	c #374545",
".+	c #233131",
"++	c #1F2D2D",
"@+	c #384646",
"#+	c #313F3F",
"$+	c #475555",
"%+	c #4E5E5D",
"&+	c #172726",
"*+	c #5A6A69",
"=+	c #576766",
"-+	c #526261",
";+	c #233332",
">+	c #1A2A29",
",+	c #3A4A49",
"'+	c #273736",
")+	c #586867",
"!+	c #000E0D",
"~+	c #2A3A39",
"{+	c #132322",
"]+	c #2E3C3C",
"^+	c #414F4F",
"/+	c #212D2D",
"(+	c #253131",
"_+	c #3A4445",
":+	c #232D2E",
"<+	c #030D0E",
"[+	c #0A1415",
"}+	c #212B2C",
"|+	c #415150",
"1+	c #374746",
"2+	c #516160",
"3+	c #495958",
"4+	c #000A09",
"5+	c #1F2F2E",
"6+	c #485857",
"7+	c #546060",
"8+	c #5B6566",
"9+	c #4B5556",
"0+	c #2E3839",
"a+	c #5A6264",
"b+	c #12171A",
"c+	c #42474A",
"d+	c #191E21",
"e+	c #262A2D",
"f+	c #121619",
"g+	c #000105",
"h+	c #131418",
"i+	c #333438",
"j+	c #3A4646",
"k+	c #596565",
"l+	c #222E2E",
"m+	c #162222",
"n+	c #475353",
"o+	c #4E5A5A",
"p+	c #2E3A3A",
"q+	c #313D3D",
"r+	c #243030",
"s+	c #434F4F",
"t+	c #0B1B1A",
"u+	c #566665",
"v+	c #0D1D1C",
"w+	c #354544",
"x+	c #000807",
"y+	c #4A5A59",
"z+	c #122221",
"A+	c #2B3E3C",
"B+	c #1E2E2D",
"C+	c #142423",
"D+	c #2C3637",
"E+	c #131D1E",
"F+	c #121A1C",
"G+	c #262E30",
"H+	c #32373A",
"I+	c #243232",
"J+	c #4D5B5B",
"K+	c #5C6A6A",
"L+	c #3C4A4A",
"M+	c #000D0D",
"N+	c #364444",
"O+	c #546262",
"P+	c #445252",
"Q+	c #000A0B",
"R+	c #5C6667",
"S+	c #1F2729",
"T+	c #0E1618",
"U+	c #2E3336",
"V+	c #24292C",
"W+	c #3F4447",
"X+	c #323639",
"Y+	c #2B2F32",
"Z+	c #414548",
"`+	c #3D3E42",
" @	c #47484C",
".@	c #344040",
"+@	c #111D1D",
"@@	c #5B6767",
"#@	c #0F1B1B",
"$@	c #4B5959",
"%@	c #6E7C7C",
"&@	c #5B6969",
"*@	c #495757",
"=@	c #556363",
"-@	c #152323",
";@	c #1D302E",
">@	c #1D2728",
",@	c #545C5E",
"'@	c #0C1114",
")@	c #03080B",
"!@	c #2D3134",
"~@	c #5C6063",
"{@	c #4C5A5A",
"]@	c #505E5E",
"^@	c #182626",
"/@	c #122020",
"(@	c #1B2929",
"_@	c #6A7878",
":@	c #737F7F",
"<@	c #303A3B",
"[@	c #1E2829",
"}@	c #1D2527",
"|@	c #363B3E",
"1@	c #262B2E",
"2@	c #363A3D",
"3@	c #1E2225",
"4@	c #030F0F",
"5@	c #4A5656",
"6@	c #202C2C",
"7@	c #323E3E",
"8@	c #172122",
"9@	c #343E3F",
"0@	c #374142",
"a@	c #2A3435",
"b@	c #2D3738",
"c@	c #364041",
"d@	c #444E4F",
"e@	c #555F60",
"f@	c #515B5C",
"g@	c #252F30",
"h@	c #3D4748",
"i@	c #283233",
"j@	c #050F10",
"k@	c #1A2828",
"l@	c #465454",
"m@	c #425050",
"n@	c #0F2321",
"o@	c #152927",
"p@	c #324040",
"q@	c #2C3436",
"r@	c #1A1F22",
"s@	c #1B2023",
"t@	c #37383C",
"u@	c #343539",
"v@	c #2C2D31",
"w@	c #4A5858",
"x@	c #303E3E",
"y@	c #344242",
"z@	c #2F3F3E",
"A@	c #495354",
"B@	c #343C3E",
"C@	c #2F3739",
"D@	c #283032",
"E@	c #161B1E",
"F@	c #2C3838",
"G@	c #505C5C",
"H@	c #4D5758",
"I@	c #475152",
"J@	c #3C4647",
"K@	c #323C3D",
"L@	c #081213",
"M@	c #182223",
"N@	c #1C2627",
"O@	c #000405",
"P@	c #222C2D",
"Q@	c #273535",
"R@	c #4F5D5D",
"S@	c #576565",
"T@	c #586666",
"U@	c #3D4B4B",
"V@	c #243836",
"W@	c #162A28",
"X@	c #445755",
"Y@	c #1E2628",
"Z@	c #303538",
"`@	c #303437",
" #	c #15161A",
".#	c #090A0E",
"+#	c #201F24",
"@#	c #3E3D42",
"##	c #152121",
"$#	c #0E1A1A",
"%#	c #1A2626",
"&#	c #465252",
"*#	c #2A3E3C",
"=#	c #1D312F",
"-#	c #384B49",
";#	c #314442",
">#	c #131F1F",
",#	c #3B4546",
"'#	c #293334",
")#	c #1B2526",
"!#	c #192324",
"~#	c #0C1617",
"{#	c #273132",
"]#	c #151F20",
"^#	c #111B1C",
"/#	c #0F191A",
"(#	c #3F4B4B",
"_#	c #192525",
":#	c #455151",
"<#	c #304442",
"[#	c #283C3A",
"}#	c #213533",
"|#	c #334644",
"1#	c #212F2F",
"2#	c #505A5B",
"3#	c #474F51",
"4#	c #282D30",
"5#	c #101417",
"6#	c #18191D",
"7#	c #2B2A2F",
"8#	c #1A181D",
"9#	c #09070C",
"0#	c #5A6666",
"a#	c #455B58",
"b#	c #576D6A",
"c#	c #647A77",
"d#	c #7E9290",
"e#	c #091D1B",
"f#	c #1E3230",
"g#	c #304341",
"h#	c #5E6E6D",
"i#	c #596968",
"j#	c #182424",
"k#	c #000C0C",
"l#	c #041010",
"m#	c #353D3F",
"n#	c #4A5254",
"o#	c #0F1719",
"p#	c #333B3D",
"q#	c #252D2F",
"r#	c #2E3638",
"s#	c #2D3537",
"t#	c #454D4F",
"u#	c #384042",
"v#	c #424A4C",
"w#	c #363E40",
"x#	c #6D7979",
"y#	c #1F3331",
"z#	c #3F5351",
"A#	c #415553",
"B#	c #3C4F4D",
"C#	c #324241",
"D#	c #404E4E",
"E#	c #556161",
"F#	c #2F393A",
"G#	c #182022",
"H#	c #111619",
"I#	c #121317",
"J#	c #18171C",
"K#	c #151419",
"L#	c #0E0C11",
"M#	c #121015",
"N#	c #221D23",
"O#	c #495555",
"P#	c #566262",
"Q#	c #525E5E",
"R#	c #2E4743",
"S#	c #1E3733",
"T#	c #0A201D",
"U#	c #3A504D",
"V#	c #0B211E",
"W#	c #4C605E",
"X#	c #4D615F",
"Y#	c #506462",
"Z#	c #1B2E2C",
"`#	c #263232",
" $	c #0C1818",
".$	c #4F5B5B",
"+$	c #171F21",
"@$	c #030B0D",
"#$	c #242C2E",
"$$	c #272F31",
"%$	c #2A3234",
"&$	c #4D5557",
"*$	c #071313",
"=$	c #4D5959",
"-$	c #253937",
";$	c #3C504E",
">$	c #455957",
",$	c #445453",
"'$	c #0D1718",
")$	c #000709",
"!$	c #010508",
"~$	c #0B0C10",
"{$	c #141318",
"]$	c #060409",
"^$	c #181319",
"/$	c #332E34",
"($	c #576363",
"_$	c #17302C",
":$	c #132C28",
"<$	c #4C6561",
"[$	c #28413D",
"}$	c #4E6461",
"|$	c #172D2A",
"1$	c #3A4E4C",
"2$	c #2B3F3D",
"3$	c #425654",
"4$	c #5B6E6C",
"5$	c #687474",
"6$	c #5D6969",
"7$	c #081414",
"8$	c #1C2426",
"9$	c #495153",
"0$	c #485052",
"a$	c #444C4E",
"b$	c #3E4648",
"c$	c #323A3C",
"d$	c #3D4547",
"e$	c #4C5456",
"f$	c #485C5A",
"g$	c #3C4C4B",
"h$	c #272C2F",
"i$	c #16151A",
"j$	c #201E23",
"k$	c #1D181E",
"l$	c #1C171D",
"m$	c #231E24",
"n$	c #15241F",
"o$	c #1A2924",
"p$	c #2A3934",
"q$	c #2E3D38",
"r$	c #24332E",
"s$	c #3F4E49",
"t$	c #586762",
"u$	c #12211C",
"v$	c #52615C",
"w$	c #394843",
"x$	c #42514C",
"y$	c #364540",
"z$	c #172621",
"A$	c #162B24",
"B$	c #132821",
"C$	c #253A33",
"D$	c #475C55",
"E$	c #556A63",
"F$	c #485D56",
"G$	c #394E47",
"H$	c #374C45",
"I$	c #40554E",
"J$	c #364B44",
"K$	c #3E534C",
"L$	c #4E635C",
"M$	c #3C514A",
"N$	c #182D26",
"O$	c #172C25",
"P$	c #31463F",
"Q$	c #2F3D3D",
"R$	c #132121",
"S$	c #263530",
"T$	c #465550",
"U$	c #566560",
"V$	c #1F2E29",
"W$	c #34433E",
"X$	c #303F3A",
"Y$	c #3C4B46",
"Z$	c #4D5C57",
"`$	c #384742",
" %	c #35443F",
".%	c #31403B",
"+%	c #4A5954",
"@%	c #202F2A",
"#%	c #071611",
"$%	c #3D4C47",
"%%	c #4B5A55",
"&%	c #374641",
"*%	c #44534E",
"=%	c #21302B",
"-%	c #22312C",
";%	c #283732",
">%	c #000904",
",%	c #0E1D18",
"'%	c #000500",
")%	c #01100B",
"!%	c #2B3A35",
"~%	c #162520",
"{%	c #0B1A15",
"]%	c #192823",
"^%	c #1C2B26",
"/%	c #14231E",
"(%	c #091813",
"_%	c #273631",
":%	c #475651",
"<%	c #101F1A",
"[%	c #4C5B56",
"}%	c #32413C",
"|%	c #2C3B36",
"1%	c #0C1F19",
"2%	c #081B15",
"3%	c #162923",
"4%	c #354842",
"5%	c #475A54",
"6%	c #445751",
"7%	c #3F524C",
"8%	c #42554F",
"9%	c #495C56",
"0%	c #41544E",
"a%	c #334640",
"b%	c #243731",
"c%	c #1A2D27",
"d%	c #22352F",
"e%	c #384B45",
"f%	c #4D605A",
"g%	c #394747",
"h%	c #000404",
"i%	c #293833",
"j%	c #3A4944",
"k%	c #25342F",
"l%	c #0C1B16",
"m%	c #1E2D28",
"n%	c #4F5E59",
"o%	c #43524D",
"p%	c #23322D",
"q%	c #505F5A",
"r%	c #33423D",
"s%	c #3B4A45",
"t%	c #0D1C17",
"u%	c #1B2A25",
"v%	c #061510",
"w%	c #11201B",
". + @ # @ $ % & * * = - ; > , ' ) ! ~ { ] ^ / ( _ _ : < [ } | 1 2 3 4 5 ~ 6 7 8 } 9 7 0 a b c d c e f g h i j k l m n o n p q r = + s t = u % v w x y z A j B h m C n D E F G H I J K L M N y O . + @ # @ $ % & * * ",
"P Q R S - T U V W X Y Z ` ! 4  ...+.@.#.$.%.&.*.=.=.-.;.>.,.9 '.).!.~.{.].^./.).9 '.).(._.:.<.[.}.|.1.2.3.4.5.6.7.8.8.9.0.= R a.b.c.d.@ e.f.g.h.z Z i.# j.z D i D e k.o l.m.n.M o.p.q.r.{.# s.+ P Q R S - T U V W X ",
"h t.u.v.c w.x.y.z.c b A.w.].B.C.D.E.F.G.H.I.J.K.L.>.M.N.O.P.{.Q.a B.,.R.^.~.7 S...T.P.U.1 V.W.X.Y.Z.`. +8..+5.++H @+K #+$+%+&+j E *+=+%+-+;+>+,+'+)+!+w.h t i.. ~+{+g ]+M ^+/+(+_+:+<+[+}+D E |+h t.u.v.c w.x.y.z.c ",
"v.c 1+t.2+E 3+4+5+6+k.y.o 7+6 8+9+0+$.a+b+c+d+e+f+g+;.h+i+j+{.7 k+l+m+n+2 {.'.o+a p+l+..q+8 q.p+^.~ 5 r+..1 s+_.3 !.0 3 m+'+5+t+>+u+u+,+c D v+w+u.C x+y+z+v A+w E B+C+X.W.s+D+E+F+G+/ / H+b c C+v.c 1+t.2+E 3+4+5+6+",
"I+J+K+L+n.M+N+7.++O+P+H 4.Q.n+m.T.Q+R+S+T+U+V+W+X+Y+Z+`+ @s+'.p+~ _.l+5 | o+4 6 /+.@!./++@8 !.j+p+S.'.'.@@4 a .@| /+#@0  .n.$@|.:.L+%@&@X.*@0.*@N+=@W.Z.-@;@Q O ;@>+I+^+].>@@.,@H.'@)@!@~@{@P+:.I+J+K+L+n.M+N+7.++O+",
"2.]@.+0.^@/@Y.Y.-@^+#+P+9.(@H _@l.:@^.<@[@F+}@|@1@V+2@e+3@4@5@R.a s+4 _.{.R.6@R..@7@.@!.].8@9@0@a@b@c@d@e@f@g@f@h@:+i@j@g@k@}.^+@+0.l@`.m@J+|.#+L 0.7.2.N+n@o@;@P n W.p@R.@.q@r@s@Y+t@u@v@ +9.k@2.]@.+0.^@/@Y.Y.-@^+",
"#+w@1.J *@x@(@l..+Z..+N+y@A.=+z@D #+L+5.,.} A@d@B@C@D@E@b+ .9 ~.F@q+!.r.9 m+..} G@6 m+1 ).D+H@I@J@0@0+J@I@K@L@h@<@M@N@O@P@#+8.Q@R@@+:.(@S@I 4.P+M T@U@' L+V@W@X X@1+/@6 9@Y@Z@H.`@ #.#+#@#p@$+P+#+w@1.J *@x@(@l..+Z.",
"##..r+/.$#l++@%#S.a &#!.~ *#=#-#w ;#E =+G I ^.>#(+,#'#:+c@,.{.1 T.6@8 ~.4 ~.$#l+/.F@p+a (+] c@[@)#!#~#P@{#:+]#b@0@}+^#/#N@q+5 7@(#_#F@~ :#]...n+(#k+7+7@].<#[#}#|#E 1#B.2#3#4#5#6#7#7#8#9#$#5@7 ##..r+/.$#l++@%#S.a ",
"&#3 @@S.q+~ .@p+p+_.0#o.1 a#b#c#d#e#f#T g#h#i#H P+G@j#k##@2 l#q+T.8 r+p+.@7@6@_#^.q.3 s+p+m#n#S+Y@S+o#$.p#q#r#s#t#u#G+v#w#).S.1 7@(./.a 7@x#1 6 ,.7@:#(#^.y#z#A#B#C#D#E#F#G#H#I#J#K#L#M#N#m+} n+&#3 @@S.q+~ .@p+p+_.",
"5@9 O#_.5@P#Q#O#_#0 (#~ ,.R#S#T#U#V#W#X#Y#Z#A+f g }.k@n.k@`#U.!. $6@7@O#S.:#.$5 8 R.q+(+##q#v#+$S+Y@@$G+#$q#r#$$^ %$C@&$G.7@`#>#7 *${.r+F@P#S.7@=$Q#5@9 r.-$;$>$q ,$@+!.'$)$!$~${$L#]$^$/$$#r.9 5@9 O#_.5@P#Q#O#_#0 ",
"/+,.E#_.{.k+s+($`#].8 >#r+_$:$<$[$}$|$1$2$3$4$x 5+,+z.-@2._#1 5$r+6$k+S.7$#@q.6@0 a O#~ j#8$n#$.9$0$#$a$b$&$0$a$c$$$d$e$b$6 ,.j#j+4@/.1 /+).:#6 5 o.q.} n+f$[#f#f.g$2./+{#h$f+.#i$j$k$l$m$`#,.E#/+,.E#_.{.k+s+($`#].",
"n$o$p$q$r$s$t$u$v$w$x$y$z$A$B$C$D$E$F$G$H$I$J$K$L$M$N$O$P$#+`.J U@Q@(@M Q$:.++L+p@R$Z.J+I+S$o$T$y$U$V$W$X$r$Y$o$W$w$S$Z$`$ %.%Z$+%@%S$X$#%n$$%t$%%&%y$s$*%=%Y$T$W$-%;%W$`$&%>%,%-%'%)%!%~%{%]%^%n$o$p$q$r$s$t$u$v$w$",
"o$/%o$~%(%_%:%<%[%}%$%$%|%1%2%3%4%5%6%7%8%9%0%a%b%c%d%e%f%++K @+g%]+W.' /@|.M W.<.<.|.@+h%i%o$j%k%s$l%=%m%}%Z$ %n%[%q$o%S$^%o$y$&%z$p%X$,%r$s$q%:%Y$s$x$s$W$Y$ %m%~%r$r%y$s%t%u%i%v%#%=%w%k%q$p$o$/%o$~%(%_%:%<%[%}%"};
