/* XPM */
static char * wea2_xpm[] = {
"157 14 401 2",
"  	c None",
". 	c #354042",
"+ 	c #5D686A",
"@ 	c #1B2628",
"# 	c #4E595D",
"$ 	c #283337",
"% 	c #465157",
"& 	c #505B61",
"* 	c #1E2831",
"= 	c #3C464F",
"- 	c #4E5861",
"; 	c #19232D",
"> 	c #636D77",
", 	c #0B151F",
"' 	c #252F39",
") 	c #1B252F",
"! 	c #454F59",
"~ 	c #38424C",
"{ 	c #58626C",
"] 	c #353F49",
"^ 	c #4C5660",
"/ 	c #5E6872",
"( 	c #2D3741",
"_ 	c #222C36",
": 	c #333D47",
"< 	c #303A44",
"[ 	c #5A646E",
"} 	c #050F19",
"| 	c #00030D",
"1 	c #424D53",
"2 	c #3B464C",
"3 	c #323D43",
"4 	c #4A555B",
"5 	c #576268",
"6 	c #162127",
"7 	c #1D282E",
"8 	c #434E54",
"9 	c #253036",
"0 	c #303B41",
"a 	c #5F6A70",
"b 	c #404B51",
"c 	c #3E494F",
"d 	c #283339",
"e 	c #3B4648",
"f 	c #475254",
"g 	c #253032",
"h 	c #293436",
"i 	c #1E292B",
"j 	c #2D383A",
"k 	c #374244",
"l 	c #323D3F",
"m 	c #2E393B",
"n 	c #545F61",
"o 	c #2C3739",
"p 	c #2B3638",
"q 	c #313C3E",
"r 	c #263133",
"s 	c #455052",
"t 	c #394446",
"u 	c #1A242E",
"v 	c #2C3640",
"w 	c #47515B",
"x 	c #131D27",
"y 	c #0C1620",
"z 	c #56606A",
"A 	c #323C46",
"B 	c #07111B",
"C 	c #232D37",
"D 	c #37414B",
"E 	c #1D2731",
"F 	c #0E1822",
"G 	c #525C66",
"H 	c #000711",
"I 	c #414B55",
"J 	c #28323C",
"K 	c #27313B",
"L 	c #39434D",
"M 	c #434D57",
"N 	c #1C2630",
"O 	c #2B353F",
"P 	c #212B35",
"Q 	c #4E5862",
"R 	c #1F2933",
"S 	c #06101A",
"T 	c #374343",
"U 	c #4D585A",
"V 	c #2C373B",
"W 	c #384349",
"X 	c #19232C",
"Y 	c #2A343D",
"Z 	c #48525C",
"` 	c #3C4650",
" .	c #3F4953",
"..	c #000A14",
"+.	c #4A545E",
"@.	c #4D5761",
"#.	c #000610",
"$.	c #3B454F",
"%.	c #404A54",
"&.	c #57616B",
"*.	c #1A252B",
"=.	c #535E64",
"-.	c #2B363C",
";.	c #101B21",
">.	c #414C52",
",.	c #263137",
"'.	c #222D33",
").	c #3F4A50",
"!.	c #444F55",
"~.	c #131E24",
"{.	c #2D383E",
"].	c #2C373D",
"^.	c #273238",
"/.	c #202B31",
"(.	c #3F4A4C",
"_.	c #2A3537",
":.	c #364143",
"<.	c #384345",
"[.	c #4A5557",
"}.	c #515C5E",
"|.	c #333E40",
"1.	c #303B3D",
"2.	c #0B1618",
"3.	c #4F5963",
"4.	c #101A24",
"5.	c #2F3943",
"6.	c #545E68",
"7.	c #59636D",
"8.	c #A7B1BB",
"9.	c #17212B",
"0.	c #67717B",
"a.	c #18222C",
"b.	c #515B65",
"c.	c #141E28",
"d.	c #323E3E",
"e.	c #010C0E",
"f.	c #273234",
"g.	c #434E50",
"h.	c #1D282A",
"i.	c #5C676B",
"j.	c #030E12",
"k.	c #49545A",
"l.	c #040E17",
"m.	c #2D3740",
"n.	c #6B757E",
"o.	c #020C16",
"p.	c #26303A",
"q.	c #313B45",
"r.	c #0D1721",
"s.	c #505A64",
"t.	c #46505A",
"u.	c #49535D",
"v.	c #3A444E",
"w.	c #2E3842",
"x.	c #677278",
"y.	c #09141A",
"z.	c #4F5A60",
"A.	c #4C575D",
"B.	c #00040A",
"C.	c #3D484E",
"D.	c #646F75",
"E.	c #374248",
"F.	c #2E393F",
"G.	c #152022",
"H.	c #3D484A",
"I.	c #485355",
"J.	c #4E595B",
"K.	c #2F3A3C",
"L.	c #3A4547",
"M.	c #404B4D",
"N.	c #444F51",
"O.	c #212C2E",
"P.	c #5C6670",
"Q.	c #121C26",
"R.	c #36404A",
"S.	c #3D4751",
"T.	c #727C86",
"U.	c #1E2832",
"V.	c #3E4852",
"W.	c #182424",
"X.	c #222D2F",
"Y.	c #495456",
"Z.	c #3C4749",
"`.	c #253034",
" +	c #29343A",
".+	c #5B666C",
"++	c #525C65",
"@+	c #6F7982",
"#+	c #00020B",
"$+	c #0A141E",
"%+	c #747E88",
"&+	c #202A34",
"*+	c #4B555F",
"=+	c #00040E",
"-+	c #1E292F",
";+	c #556066",
">+	c #232E34",
",+	c #172228",
"'+	c #475258",
")+	c #455056",
"!+	c #566167",
"~+	c #0F1A20",
"{+	c #343F43",
"]+	c #0D181C",
"^+	c #354044",
"/+	c #242F33",
"(+	c #192428",
"_+	c #323D41",
":+	c #434E52",
"<+	c #485357",
"[+	c #222D31",
"}+	c #475256",
"|+	c #3F4A4E",
"1+	c #424D51",
"2+	c #4F5A5E",
"3+	c #09131D",
"4+	c #2A343E",
"5+	c #7E8892",
"6+	c #000913",
"7+	c #343E48",
"8+	c #040E18",
"9+	c #16202A",
"0+	c #444E58",
"a+	c #08121C",
"b+	c #303C3C",
"c+	c #000709",
"d+	c #6F7A7C",
"e+	c #4A5559",
"f+	c #5B666A",
"g+	c #3C474D",
"h+	c #2E3841",
"i+	c #3E4851",
"j+	c #98A2AB",
"k+	c #555F69",
"l+	c #242E38",
"m+	c #00020C",
"n+	c #5D6771",
"o+	c #000309",
"p+	c #343F45",
"q+	c #1C272D",
"r+	c #354046",
"s+	c #1B262C",
"t+	c #141F25",
"u+	c #4B565C",
"v+	c #0C171D",
"w+	c #586367",
"x+	c #0E191D",
"y+	c #364145",
"z+	c #3E494D",
"A+	c #414C50",
"B+	c #374246",
"C+	c #313C40",
"D+	c #596468",
"E+	c #3C474B",
"F+	c #2A3539",
"G+	c #131E22",
"H+	c #424C56",
"I+	c #151F29",
"J+	c #6E7882",
"K+	c #66707A",
"L+	c #5B656F",
"M+	c #7F8993",
"N+	c #596565",
"O+	c #111C1E",
"P+	c #556062",
"Q+	c #4B565A",
"R+	c #535D66",
"S+	c #252F38",
"T+	c #121C25",
"U+	c #030D17",
"V+	c #656F79",
"W+	c #6B757F",
"X+	c #59646A",
"Y+	c #0D181E",
"Z+	c #687379",
"`+	c #030E14",
" @	c #000B11",
".@	c #5A656B",
"+@	c #212C32",
"@@	c #313C42",
"#@	c #29333D",
"$@	c #1D2929",
"%@	c #00090B",
"&@	c #5E696B",
"*@	c #061113",
"=@	c #687377",
"-@	c #061115",
";@	c #525D63",
">@	c #39434C",
",@	c #535D67",
"'@	c #707A84",
")@	c #485359",
"!@	c #0E191F",
"~@	c #364147",
"{@	c #071218",
"]@	c #3A454B",
"^@	c #242F35",
"/@	c #4E595F",
"(@	c #152026",
"_@	c #6C7680",
":@	c #0D1919",
"<@	c #141F21",
"[@	c #091418",
"}@	c #4D5760",
"|@	c #58626B",
"1@	c #4A545D",
"2@	c #39444A",
"3@	c #111C22",
"4@	c #0B161C",
"5@	c #232D36",
"6@	c #343E47",
"7@	c #353F48",
"8@	c #303A43",
"9@	c #465059",
"0@	c #28323B",
"a@	c #5B656E",
"b@	c #27313A",
"c@	c #3F4952",
"d@	c #364049",
"e@	c #404A53",
"f@	c #1F2932",
"g@	c #2C363F",
"h@	c #1C262F",
"i@	c #111B25",
"j@	c #576363",
"k@	c #000305",
"l@	c #4C5759",
"m@	c #2E393D",
"n@	c #69737C",
"o@	c #010B14",
"p@	c #737D87",
"q@	c #333E44",
"r@	c #2F3A40",
"s@	c #69747A",
"t@	c #454F58",
"u@	c #414B54",
"v@	c #29333C",
"w@	c #000710",
"x@	c #2F3942",
"y@	c #4B555E",
"z@	c #49535C",
"A@	c #656F78",
"B@	c #424C55",
"C@	c #0F1922",
"D@	c #232F2F",
"E@	c #707B7D",
"F@	c #202B2D",
"G@	c #343F41",
"H@	c #545F63",
"I@	c #3D4750",
"J@	c #2A353B",
"K@	c #5C676D",
"L@	c #6F7A80",
"M@	c #0A151B",
"N@	c #263039",
"O@	c #333D46",
"P@	c #38424B",
"Q@	c #5A646D",
"R@	c #3A444D",
"S@	c #59636C",
"T@	c #101A23",
"U@	c #515B64",
"V@	c #646E78",
"W@	c #626C76",
"X@	c #6D7781",
"Y@	c #3B4747",
"Z@	c #848F91",
"`@	c #1A2529",
" #	c #1D2730",
".#	c #5F6973",
"+#	c #182329",
"@#	c #586369",
"##	c #00090F",
"$#	c #78828C",
"%#	c #757F89",
"&#	c #6A747E",
"*#	c #283434",
"=#	c #525D5F",
"-#	c #576266",
";#	c #566069",
">#	c #1B252E",
",#	c #040F15",
"'#	c #465252",
")#	c #030E10",
"!#	c #212C30",
"~#	c #4C565F",
"{#	c #010B15",
"]#	c #020D13",
"^#	c #1F2A30",
"/#	c #838D97",
"(#	c #000404",
"_#	c #404B4F",
":#	c #3D484C",
"<#	c #141E27",
"[#	c #545E67",
"}#	c #4D585E",
"|#	c #616B75",
"1#	c #88929C",
"2#	c #00050F",
"3#	c #828C96",
"4#	c #2A3636",
". + @ # $ % & * = - ; > , ' ) ! ~ { ] ^ / ( _ : ! < [ } ; | 1 2 3 4 5 6 7 4 8 9 0 a 0 b c d e f g h i j k l m n o p q r s t u v w x ] u y [ z ( A B C D E F G H I ~ J K L M N : w O P Q R S T s . + @ # $ % & * = - ; > , ' ) ! ~ { ] ^ / ( _ : ! < [ } ; | 1 2 3 4 5 6 7 4 8 9 0 a 0 b c d e f g h i j k l m n o p q r s ",
"U t @ $ V d W X Y X ( N Z `  ...P +.@.#.$.%.x  .F &.] J $.! *.=.-.;.>.,.b '.).!.~.{.].>.^./.(.. _.k :.e <.h [.}.q |.e 1.p 2.3.4.5.! A : ` 6.S _ 7.~ ! 4.~ : ' 8.O x z 3.9.N ~ 0.a.( O u b.c.d.e.U t @ $ V d W X Y X ( N Z `  ...P +.@.#.$.%.x  .F &.] J $.! *.=.-.;.>.,.b '.).!.~.{.].>.^./.(.. _.k :.e <.h [.}.q |.e 1.p ",
"f.g.h.i.j.k.{.l.m.n.o.O b.p.) q.w O r.' s.N t.a.u.} : +.v.w.-.x.d y.z.8 A.B.C.D.E.F.*.^.-./.@ G.<.H.r i :.I.J.K.L.e M.N.g O.) ` < L > G 9.I P.c.a.Q.R.Q C ( H N ~ 5.S.T.U.O { ! Q I M V.C U.W.X.f.g.h.i.j.k.{.l.m.n.o.O b.p.) q.w O r.' s.N t.a.u.} : +.v.w.-.x.d y.z.8 A.B.C.D.E.F.*.^.-./.@ G.<.H.r i :.I.J.K.L.e M.N.g ",
"Y.g Z.V `. +.+++@+#+t.( $+%+ .q.P.D V.&+*+A w.p.w./ J w =+H -+4 {.).;+>+0 ,+'+)+C.>.'. +!+~+{+]+^+{+/+(+_+:+<+[+}+|+_+1+{+2+3+4+^ V.) : S.) 4.q.< 5+: v.6+' S M ] R 7+8+K 9+O %.K 0+3.9+: a+b+c+Y.g Z.V `. +.+++@+#+t.( $+%+ .q.P.D V.&+*+A w.p.w./ J w =+H -+4 {.).;+>+0 ,+'+)+C.>.'. +!+~+{+]+^+{+/+(+_+:+<+[+}+|+_+1+{+",
"+ d+t e+f+g+*.h+i+j+w u.k+l+b.M s.m+9.E k+~ A l+O n+@._ w t.o+E.p+3 q+'.r+s+r+/.t+'.2 *.u+v+w+x+y+z+A+{+B+C+:+z+D+w+E+y+F+G+O H+E ..7+$.O &+w I+M $.c.J+..Q ) r.K+M p.%.L+O 7.| I+_ ` U.p.M+N+O++ d+t e+f+g+*.h+i+j+w u.k+l+b.M s.m+9.E k+~ A l+O n+@._ w t.o+E.p+3 q+'.r+s+r+/.t+'.2 *.u+v+w+x+y+z+A+{+B+C+:+z+D+w+E+y+F+",
"s p P+F+Q+4 b R+S+T+E t.U+V+n+D F ^ 7+v.4.Q G w.! ] x W+q.v X+{.Y+!+z.8 g+4 p+& ].7 Z+`+].k.2  @u+.@!+g+>.!.8 b /.>++@2 x.@@7+4+A L  .F J I 7+ .I+E 0+#@n+4+` b.U.O A v._ v.` v.[ #@A O &+4.$@%@s p P+F+Q+4 b R+S+T+E t.U+V+n+D F ^ 7+v.4.Q G w.! ] x W+q.v X+{.Y+!+z.8 g+4 p+& ].7 Z+`+].k.2  @u+.@!+g+>.!.8 b /.>++@2 x.",
"&@*@g.=@-@;@9 #+i+>@v S.6.K w w.: *+,@3.r.'@&.Z a.s.v.#.G 5.-.k.-.)@>+8 ,.!.,+r+!@F.-.~@d {@E. +]@z.F.F.z.^@).q+;+/@8 (@p+1 L ~ 0+4._@) q.%.r.~ : 5.q.w.0+Z P R y b.$.u +.9.C t.K K v.S.$.$+:@H.&@*@g.=@-@;@9 #+i+>@v S.6.K w w.: *+,@3.r.'@&.Z a.s.v.#.G 5.-.k.-.)@>+8 ,.!.,+r+!@F.-.~@d {@E. +]@z.F.F.z.^@).q+;+/@8 (@p+",
"<@f O.[@^+~+k.}@|@1@w z c.~ D x A ~ ' K+~ N c.t.K M p.J ! 6.!.2 2@v+^@3@C.X+,.].& 4@D.o+-.k.* 5@6@7@- 8@9@0@a@b@c@d@e@f@g@h@w.m+^ < m+9+9+4.b.^ +.&+&.K t.4+K+Z w $+i@G =+L+y I I D > =+$+^ j@L.<@f O.[@^+~+k.}@|@1@w z c.~ D x A ~ ' K+~ N c.t.K M p.J ! 6.!.2 2@v+^@3@C.X+,.].& 4@D.o+-.k.* 5@6@7@- 8@9@0@a@b@c@d@e@f@g@",
"k@_.l@m@# g+F.n@o@>@< D ! p@D *+/ 0+w.D 4.%.w ,@,@&+{ q.4+< 0 >.4 k.>.,.-+@@6 q@r@,+s@3@/.;@t@u@v@w@x@o@* h@y@f@z@Y A@g@B@C@0.S 5.J O u.4+9.C %.v Z %.V.H+,@5.0+5.s.w.C _ < l+' l+; l+v ! c.D@E@k@_.l@m@# g+F.n@o@>@< D ! p@D *+/ 0+w.D 4.%.w ,@,@&+{ q.4+< 0 >.4 k.>.,.-+@@6 q@r@,+s@3@/.;@t@u@v@w@x@o@* h@y@f@z@Y A@g@B@",
"F@+ G@H@D+E.b >@I@n@] @.4+*+@.^ q.N $.A a+u. .V.i@@.^ n+< b.J@3 ^.p+p+]@2 K@1 L@~.*.M@z.7 r@N@O@P@I@Q@R@1@e@e@S@T@- o@U@>@R+7+4+H S.] K L L+) u.p.V@v D N  .W@} l+c.J+P n+< J 9.O X@8+w.u.M Y@[.F@+ G@H@D+E.b >@I@n@] @.4+*+@.^ q.N $.A a+u. .V.i@@.^ n+< b.J@3 ^.p+p+]@2 K@1 L@~.*.M@z.7 r@N@O@P@I@Q@R@1@e@e@S@T@- o@U@>@",
"I.Z@g (+`@a 6 I@ #n@.#J V+0+v.' 7+P u %.&.t.u.< $.L M 6+ .p.C.+@].o+g++#1 b o+2@5 @#^.X+@@##u.! ! X@$.v.w A 9.! 0+{ +.] v I+b.P.U.$#; q.~ S.M %.w.~ s.v 4+P B n+P +.H u $+%#| I D A 4.&#$.a+*#p I.Z@g (+`@a 6 I@ #n@.#J V+0+v.' 7+P u %.&.t.u.< $.L M 6+ .p.C.+@].o+g++#1 b o+2@5 @#^.X+@@##u.! ! X@$.v.w A 9.! 0+{ +.] v ",
"k@=#1.e+-#~..+U@;#>#Z ' Q.M A  .,@ .~ C R.Z u v r.I F D 7.w.>+-.@@^@% ~@+@,#;.*.g+0 o+@@k.>.P , #.` 6+A n+P.,@W+N : R 7+` M B c.( i@M b.S.( w.~ &+v $.7+%.w , < D < < R.` } v 3+V.I P ..a.R.'#)#k@=#1.e+-#~..+U@;#>#Z ' Q.M A  .,@ .~ C R.Z u v r.I F D 7.w.>+-.@@^@% ~@+@,#;.*.g+0 o+@@k.>.P , #.` 6+A n+P.,@W+N : R 7+` ",
"L.m <.!#[+).3 t@~#P@W+` +.0+H++.#@U.V@O {#F ! R.L ) R.R.V.I+t+2@3@{.+@s@!.8 c E.W E.]#F.t+^#v ' 9.Q A ~ ] K +.z L O .#' 3.` D 7./#< P.i@9+K ' Q v V.&+5.< 0+Z {#K+.#o.p@+.~ > ) ,@4+P I .#x (#+ L.m <.!#[+).3 t@~#P@W+` +.0+H++.#@U.V@O {#F ! R.L ) R.R.V.I+t+2@3@{.+@s@!.8 c E.W E.]#F.t+^#v ' 9.Q A ~ ] K +.z L O .#' 3.",
"q U M._#:#0 K@<#[#x@; : 0+K a.S.&.5.L M { 9.E R ] v ` u.U.> r+}#W (@^.}#/@C.0 C.@#7 3 E.{.).I V.N 7+6.H+~ L v V+w.|#+.< 4+] Z ( m+1#u &+H+' 4+: S.R P.~ b.v 4+$.2#3#p.L  .R.} v._@H+v L &+w.4#e.q U M._#:#0 K@<#[#x@; : 0+K a.S.&.5.L M { 9.E R ] v ` u.U.> r+}#W (@^.}#/@C.0 C.@#7 3 E.{.).I V.N 7+6.H+~ L v V+w.|#+.< 4+"};
